<svg width="72" height="48" viewBox="0 0 72 48" fill="none" xmlns="http://www.w3.org/2000/svg">
<path fill-rule="evenodd" clip-rule="evenodd" d="M25.5821 0.0820312V8.41403H18.0821C13.9141 8.41403 12.2501 12.996 11.6251 14.664L9.54305 20.914L8.91805 20.9179C5.37505 20.9179 2.66805 23.6249 2.66805 27.1679V31.3359L0.582153 31.332V39.664H8.91415C8.91415 44.246 12.6642 47.996 17.2462 47.996C21.8282 47.996 25.5782 44.246 25.5782 39.664H46.4102C46.4102 44.246 50.1602 47.996 54.7422 47.996C59.3242 47.996 63.0742 44.246 63.0742 39.664H71.4062L71.4179 0.0820312H25.5821ZM14.5431 15.707C15.1681 13.832 16.2111 11.539 18.0861 11.539L25.5822 11.5429V20.9179H12.8752L14.5431 15.707Z" fill="#0893EA"/>
</svg>
