<svg width="84" height="79" viewBox="0 0 84 79" fill="none" xmlns="http://www.w3.org/2000/svg">
<path d="M66.7812 36.3125C71.096 36.3125 74.5938 32.8147 74.5938 28.5C74.5938 28.2238 74.5785 27.9512 74.5505 27.6824C76.075 28.1562 77.8925 28.0748 79.2541 27.8851C79.7791 27.8119 79.962 27.1712 79.5755 26.8084C78.1325 25.4542 77.684 22.8004 77.684 20.5585C77.684 16.8323 73.7935 17.0143 73.7935 17.0143C70.8108 17.0143 70.027 20.2208 70.006 21.39C69.022 20.9429 67.9325 20.6875 66.7812 20.6875C62.4665 20.6875 58.9688 24.1853 58.9688 28.5C58.9688 32.8147 62.4665 36.3125 66.7812 36.3125ZM62.9957 23.5385C63.5204 25.1328 64.9799 27.3937 69.071 27.3937C69.071 27.3937 69.2617 31.1466 71.8053 32.202C70.666 33.7439 68.8412 34.75 66.7812 34.75C63.335 34.75 60.5312 31.9463 60.5312 28.5C60.5312 26.4775 61.5012 24.6816 62.9957 23.5385Z" fill="#0893EA"/>
<path d="M83.2807 69.8304L74.664 44.1599C73.6245 41.0631 71.0523 38.7276 67.8698 37.9911L62.4258 36.7311C60.1163 36.1966 58.1156 34.7627 56.8675 32.7473L45.8332 14.9305C45.7986 15.373 45.7017 15.8169 45.5145 16.2454L42.9298 22.1609L51.7773 41.0735C53.1019 43.905 53.5162 47.0728 52.9656 50.15C52.2032 54.4108 51.2343 60.8557 51.2343 66.0908C51.2343 72.2069 52.3019 75.8864 52.9239 77.5113C53.1532 78.1105 53.7357 78.5 54.3772 78.5H74.7998C75.6509 78.5 76.3455 77.8188 76.3621 76.9679L76.4489 72.4997L68.6135 53.3303C68.4502 52.9309 68.6417 52.4746 69.0411 52.3114C69.4424 52.1496 69.8967 52.34 70.06 52.739L76.5255 68.5569L76.5258 68.5418L78.0655 71.8958C78.7181 73.3176 80.4066 73.9321 81.8204 73.2624C83.1061 72.6533 83.7334 71.1791 83.2807 69.8304Z" fill="#0893EA"/>
<path d="M42.0481 20.2762L44.0827 15.6197C44.322 15.0719 44.3425 14.483 44.1908 13.9444C44.0181 13.3309 43.6196 12.7833 43.0276 12.4469H43.0275C42.6376 12.2253 42.2136 12.1201 41.7954 12.1201C40.9144 12.1201 40.0594 12.5868 39.6038 13.4146L30.2807 30.4741C28.1713 34.3338 24.4509 37.021 20.1418 37.9037C16.0891 38.7339 11.2195 40.848 9.15265 46.1129C5.45697 55.5271 1.7929 65.379 0.254341 69.8826C-0.22097 71.2739 0.473496 72.7896 1.83568 73.343C2.1759 73.4812 2.52928 73.5472 2.87799 73.5472C3.84106 73.5472 4.7676 73.0434 5.27668 72.166L9.45334 65.4645L15.5163 51.2238C15.6849 50.8267 16.1438 50.6416 16.5409 50.811C16.938 50.98 17.1226 51.4389 16.9537 51.8356L11.3125 65.0857V76.9375C11.3125 77.8004 12.0089 78.5 12.8718 78.5C16.3366 78.5 24.6412 78.5 28.0918 78.5C28.9437 78.5 29.6375 77.8193 29.6512 76.9674C29.7324 71.9008 30.1104 63.8178 30.3232 59.4717C30.4099 57.702 30.8687 55.9673 31.7237 54.4155C33.3209 51.5166 33.9263 49.4004 32.9587 46.4976C31.7683 42.9266 32.6572 41.7694 32.6572 41.7694L42.0481 20.2762Z" fill="#0893EA"/>
<path d="M5.32232 31.4791C5.72772 31.4791 6.11077 31.3968 6.47388 31.2722C6.46978 31.342 6.45304 31.4082 6.45304 31.4791C6.45304 33.4488 8.04982 35.0455 10.0195 35.0455C11.0735 35.0455 12.0108 34.5796 12.6637 33.8528C14.0883 35.3639 16.1031 36.3125 18.3438 36.3125C22.6585 36.3125 26.1563 32.8147 26.1563 28.5C26.1563 28.0847 26.1144 27.6801 26.052 27.2822C27.6443 27.2441 28.925 25.9476 28.925 24.3461C28.925 23.7059 28.7152 23.1177 28.368 22.6347C28.9096 22.1009 29.2466 21.3603 29.2466 20.5399C29.2466 19.0843 28.1875 17.8834 26.7993 17.6467C26.8743 17.3588 26.9268 17.0622 26.9268 16.7508C26.9268 15.0015 25.6652 13.5529 24.0037 13.2492C24.0041 13.2271 24.0102 13.2066 24.0102 13.1843C24.0102 11.5589 22.6925 10.2412 21.067 10.2412C19.8805 10.2412 18.8644 10.9472 18.3987 11.9586C17.9293 11.7313 17.4093 11.5928 16.8528 11.5928C16.2165 11.5928 15.6278 11.7732 15.1106 12.0652C14.5745 11.3404 13.7208 10.8645 12.7501 10.8645C11.3723 10.8645 10.2248 11.8151 9.90429 13.0934C8.28939 13.4338 7.07636 14.865 7.07636 16.5812C7.07636 16.958 7.15075 17.314 7.25904 17.6549C5.47691 17.853 4.08569 19.3467 4.08569 21.1818C4.08569 21.3355 4.11205 21.482 4.13094 21.6307C3.02344 22.2358 2.26331 23.3971 2.26331 24.7482C2.26331 25.1245 2.33755 25.4802 2.4456 25.8208C2.01659 26.4096 1.75586 27.1284 1.75586 27.9126C1.75586 29.8823 3.35264 31.4791 5.32232 31.4791ZM18.3438 34.75C16.6136 34.75 15.046 34.0427 13.9133 32.9028C15.3826 32.7381 16.5291 31.506 16.5291 29.9926C16.5291 29.7095 16.4765 29.4413 16.4019 29.1822C17.5309 28.7706 18.3415 27.6976 18.3415 26.4262C18.3415 26.4187 18.3394 26.4119 18.3393 26.4045C19.8624 26.2922 21.067 25.0347 21.067 23.483C21.067 23.2645 21.0395 23.0531 20.9943 22.8481C21.7808 23.2186 22.4773 23.7461 23.0435 24.3933C23.6436 25.0791 24.0954 25.895 24.3513 26.7948C24.5057 27.3377 24.5938 27.9083 24.5938 28.5C24.5938 31.9463 21.7901 34.75 18.3438 34.75Z" fill="#0893EA"/>
<path d="M42.0651 9.81183C42.9279 9.81183 43.6276 9.11221 43.6276 8.24933V2.35486C43.6276 1.49197 42.9279 0.792358 42.0651 0.792358C41.2022 0.792358 40.5026 1.49197 40.5026 2.35486V8.24933C40.5026 9.11221 41.2022 9.81183 42.0651 9.81183Z" fill="#0893EA"/>
<path d="M46.3066 11.8958C46.7064 11.8958 47.1066 11.7433 47.4114 11.4381L51.5793 7.27014C52.1897 6.66017 52.1897 5.67064 51.5793 5.06067C50.9697 4.45032 49.9794 4.45032 49.3698 5.06067L45.2019 9.22861C44.5916 9.83858 44.5916 10.8281 45.2019 11.4381C45.5067 11.7433 45.9069 11.8958 46.3066 11.8958Z" fill="#0893EA"/>
<path d="M36.4868 11.4381C36.7916 11.7433 37.1917 11.8958 37.5915 11.8958C37.9913 11.8958 38.3915 11.7433 38.6963 11.4381C39.3066 10.8281 39.3066 9.83858 38.6963 9.22861L34.5283 5.06067C33.9187 4.45032 32.9284 4.45032 32.3188 5.06067C31.7085 5.67064 31.7085 6.66017 32.3188 7.27014L36.4868 11.4381Z" fill="#0893EA"/>
</svg>
