<svg width="91" height="88" viewBox="0 0 91 88" fill="none" xmlns="http://www.w3.org/2000/svg">
<path d="M25.0645 29.3496L29.5125 27.6335C32.0185 31.4992 36.3626 34.0625 41.3125 34.0625C46.2624 34.0625 50.6065 31.4992 53.1124 27.6335L57.5605 29.3496C58.6554 29.7721 59.8209 28.9435 59.7912 27.7704C59.628 21.3269 57.6512 4.3009 41.3125 4.3009C24.9738 4.3009 22.9969 21.3269 22.8338 27.7704C22.8041 28.9435 23.9696 29.7721 25.0645 29.3496ZM29.0405 17.6562H35.856C36.2893 17.6562 36.705 17.4848 37.0124 17.1793L38.9609 15.243C39.6036 14.6043 40.6424 14.6076 41.2811 15.2503L43.1907 17.172C43.4987 17.4819 43.9175 17.6562 44.3545 17.6562H53.5845C53.7294 18.4163 53.8125 19.1982 53.8125 20C53.8125 26.8925 48.205 32.5 41.3125 32.5C34.4199 32.5 28.8125 26.8925 28.8125 20C28.8125 19.1982 28.8956 18.4163 29.0405 17.6562Z" fill="#0893EA"/>
<path d="M68.3805 23.1871C69.0025 23.3809 69.4375 23.9388 69.4375 24.5903V25.2339C69.4375 26.0469 70.1003 26.7039 70.9133 26.6967L71.0138 26.6958C71.8713 26.6882 72.5625 25.9911 72.5625 25.0718V24.5961C72.5625 23.9571 72.9942 23.4152 73.6048 23.2266C76.1408 22.4432 77.9558 20.4281 77.9558 17.5949C77.9558 11.0345 68.3866 12.2849 68.3866 8.56505C68.3866 7.28699 69.4652 6.4355 70.8872 6.4355C71.8061 6.4355 72.6698 6.81597 73.3377 7.51749C73.8555 8.06137 74.6705 8.19221 75.3541 7.77179C75.3541 7.77179 75.4886 7.68906 75.6812 7.57061C76.4522 7.0964 76.6313 6.02261 76.0166 5.35804C75.3091 4.593 74.4733 4.04712 73.5562 3.70728C73.0162 3.50715 72.5625 2.90547 72.5625 2.3295V1.87722C72.5625 1.06932 71.9075 0.414429 71.0997 0.414429H70.9003C70.0924 0.414429 69.4375 1.06917 69.4375 1.93883V2.32321C69.4375 2.95373 69.0261 3.49256 68.4336 3.70828C66.3332 4.47322 64.8384 6.19784 64.8384 8.735C64.8384 15.1809 74.4076 13.8179 74.4076 17.9071C74.4076 19.3274 73.27 20.4338 71.1404 20.4338C69.489 20.4338 68.0667 19.7679 67.395 18.2847C67.0641 17.5539 66.233 17.0831 65.4143 17.2875L65.0728 17.3729C64.1612 17.6005 63.6209 18.5939 64.0023 19.4525C64.8445 21.3482 66.4831 22.5961 68.3805 23.1871Z" fill="#0893EA"/>
<path d="M88.0042 21.057C88.0015 21.057 87.9991 21.057 87.9965 21.057C87.0742 21.057 86.2303 21.5771 85.816 22.4016L85.2939 23.4408C84.8669 24.2907 84.076 24.8998 83.1453 25.0957L81.5073 25.4405C79.616 25.8386 78.0153 27.0893 77.1716 28.8282L73.2043 36.95C70.821 34.7172 67.6386 33.4106 64.304 33.4106C60.8315 33.4106 57.5669 34.7629 55.111 37.2184L53.96 38.3696C52.3602 37.6188 50.5794 37.1875 48.6911 37.1875H36.9907C34.7111 37.1875 32.5418 37.6666 30.5657 38.5149L29.2695 37.2184C26.8135 34.7629 23.5489 33.4106 20.0764 33.4106C15.5194 33.4106 11.2397 35.8429 8.90736 39.7583C6.3004 44.1345 5.3925 49.2992 6.35151 54.3018C8.12954 63.5853 6.74176 73.3337 2.44336 81.752L1.06015 84.4604C0.701565 85.1623 0.717587 85.9909 1.10287 86.6771C1.48739 87.3619 2.1851 87.8059 2.96864 87.865C3.43747 87.9005 3.95321 87.9223 4.51168 87.9223C8.12106 87.9223 13.508 87.0061 19.352 82.8491L19.2318 85.5469C19.1923 86.4363 19.9026 87.179 20.7928 87.179H27.25V65.8897C26.4489 65.0024 23.9319 61.8274 23.9319 56.979C23.9319 56.5475 24.2817 56.1977 24.7132 56.1977C25.1446 56.1977 25.4944 56.5475 25.4944 56.979C25.4944 61.9388 28.5462 64.9894 28.5767 65.0196C28.7266 65.1664 28.8125 65.369 28.8125 65.5788V87.179H58.4586C59.3029 87.179 59.9945 86.5083 60.0204 85.6645L60.2337 78.7262C67.8429 86.4325 75.2874 87.9223 79.8687 87.9223C80.4268 87.9223 80.9433 87.9005 81.4118 87.865C82.1953 87.8063 82.8927 87.3623 83.2772 86.6775C83.6625 85.9913 83.6785 85.1627 83.3203 84.4608L81.9371 81.752C77.6387 73.3337 76.2509 63.5853 78.0289 54.3018C78.071 54.0823 78.0896 53.8613 78.1245 53.6412L86.3566 33.4431L90.2333 24.4728C90.935 22.8639 89.7595 21.0625 88.0042 21.057ZM20.6969 52.6409L19.4416 80.8371C12.6914 86.0471 6.52284 86.5667 3.08613 86.3071C2.82139 86.2873 2.59518 86.1431 2.46548 85.9123C2.33502 85.6796 2.33006 85.4099 2.45175 85.1711L3.83496 82.4623C8.29091 73.7362 9.72943 63.631 7.88578 54.0081C6.99925 49.3816 7.83886 44.6048 10.2494 40.5578C12.3017 37.1132 16.0672 34.9731 20.0764 34.9731C23.1316 34.9731 26.0041 36.1629 28.1647 38.3232L29.0857 39.2443C24.3247 41.8888 21.0043 46.8384 20.6969 52.6409ZM56.9018 40.296C56.427 39.8774 55.9178 39.4997 55.3825 39.1566L56.2157 38.3232C58.3764 36.1629 61.2488 34.9731 64.304 34.9731C67.4016 34.9731 70.35 36.2546 72.4787 38.4242L68.33 46.8532C67.8919 47.7433 66.7458 48.005 65.9647 47.3933L56.9018 40.296ZM80.5455 82.4623L81.9287 85.1711C82.0504 85.4095 82.0454 85.68 81.9146 85.9123C81.7852 86.1431 81.559 86.2873 81.2943 86.3071C77.0863 86.6208 68.7645 85.7732 60.3009 76.5432L60.5843 67.3252L60.6247 67.6002L60.8083 62.2181C60.845 61.1418 61.8911 60.3922 62.9221 60.7034L67.0878 61.9609C70.4444 62.9741 73.9903 61.6195 75.8585 58.7937C75.2155 66.9224 76.8233 75.1732 80.5455 82.4623ZM88.8011 23.8481L85.3725 31.7087L77.5069 31.7164L78.5774 29.5102C79.2055 28.2157 80.4211 27.2659 81.8292 26.9695L83.4671 26.6247C84.8711 26.3292 86.0458 25.4244 86.6901 24.1423L87.2122 23.1031C87.3621 22.8048 87.6626 22.6195 87.9965 22.6195L87.9992 22.6055L87.9992 22.6195C88.4267 22.6208 88.6538 22.8983 88.7316 23.0175C88.8094 23.1368 88.9719 23.4564 88.8011 23.8481Z" fill="#0893EA"/>
</svg>
