<svg width="128" height="128" viewBox="0 0 128 128" fill="none" xmlns="http://www.w3.org/2000/svg">
<path d="M74.7702 49.9939C75.9775 49.8612 77.0527 49.3585 77.9017 48.6144C79.56 49.8191 81.5827 50.5232 83.7355 50.5232C84.097 50.5232 84.4623 50.5034 84.8299 50.463C87.7349 50.1438 90.2013 48.5917 91.7981 46.3865C92.8695 48.285 94.9999 49.4642 97.304 49.211C100.387 48.8722 102.611 46.0984 102.273 43.0155L102.116 41.5907C101.925 39.8469 100.954 38.3786 99.5883 37.4931C98.8791 37.0331 98.5456 36.1902 98.7952 35.3826C99.226 33.9884 99.2707 32.4402 98.8086 30.8738C97.9684 28.0263 95.4655 25.8841 92.5263 25.4653C91.3175 25.2931 90.1796 25.4042 89.1427 25.725C88.4023 25.9541 87.6161 25.6739 87.1502 25.0544C85.9982 23.523 84.0928 22.6205 82.0496 22.845L79.9578 23.0748C76.9013 23.4107 74.4948 26.0588 74.7387 29.124C74.7692 29.5065 74.8388 29.8757 74.9399 30.23C74.8295 30.2348 74.7223 30.2207 74.6108 30.233C71.8985 30.531 69.9413 32.9714 70.2394 35.6838C70.3893 37.0478 71.0822 38.2192 72.0778 39.0104C69.7294 39.9239 68.1869 42.3215 68.4752 44.9454C68.8195 48.0778 71.6377 50.3381 74.7702 49.9939ZM79.1515 47.0563C77.3219 45.76 76.0415 43.7086 75.7776 41.3062C75.7311 40.8824 75.7266 40.4615 75.7446 40.0436C75.7614 39.6531 75.7985 39.2656 75.8703 38.8853C76.1117 37.6068 76.6584 36.3994 77.487 35.3563C77.8705 34.8735 78.3056 34.4491 78.7747 34.0744C79.1664 34.1881 79.5745 34.2568 79.9928 34.2821C80.3074 34.3012 80.6265 34.3004 80.9504 34.2648L82.094 34.1392C82.9488 34.0452 83.7604 34.5627 84.0121 35.385C84.8061 37.9793 86.9096 39.9384 89.4831 40.598C90.2828 40.8029 90.9067 41.4818 90.9199 42.3071C90.9225 42.4759 90.933 42.6461 90.9518 42.8175L91.0478 43.6904C89.9357 46.2456 87.5495 48.1522 84.6114 48.475C84.3206 48.507 84.0259 48.5232 83.7355 48.5232C82.0358 48.5232 80.4552 47.9801 79.1515 47.0563Z" fill="#0893EA"/>
<path d="M92.7593 52.7943C92.3338 52.6405 91.8484 52.4996 91.2873 52.3825C91.1792 52.36 91.0599 52.3412 90.9465 52.3204C90.6121 52.255 90.2644 52.2116 89.9172 52.1676C89.7112 52.1415 89.5171 52.0952 89.3065 52.0769C89.3065 52.0769 88.5231 51.9829 87.3313 52.0182C80.9394 51.905 70.0061 53.1463 51.7795 58.5481C49.7876 59.1385 48.5119 61.0913 48.7715 63.1526C49.0771 65.5802 51.3592 67.2468 53.7641 66.7961C58.7754 65.8571 67.0299 64.5212 73.0813 64.5968C73.4568 60.8768 74.0749 58.3979 74.1094 58.2617C74.2451 57.7265 74.7891 57.3999 75.3242 57.538C75.8594 57.6733 76.1836 58.2168 76.0488 58.7524C76.0454 58.7656 75.9405 59.1877 75.7928 59.9315C75.5874 60.9668 75.2992 62.6284 75.0858 64.6839C75.0759 64.7801 75.0666 64.879 75.0569 64.9769C74.958 66.4342 74.9045 68.052 74.8904 69.7875C79.2905 68.649 82.6018 66.916 84.8965 65.3584C89.0351 62.5488 90.8848 59.6977 90.9033 59.6689C91.2021 59.2051 91.8193 59.0674 92.2832 59.3633C92.749 59.6592 92.8867 60.2754 92.5918 60.7412C92.5493 60.8081 92.3712 61.0802 92.0552 61.4937C90.459 63.5814 85.2278 69.3822 74.8913 71.875C71.9151 72.5928 68.521 73.039 64.6631 73.039H59.5098C56.7988 73.039 54.5937 75.2422 54.5937 77.9507C54.5937 80.3911 56.3535 82.4346 58.7783 82.8091C62.8994 83.4454 68.8475 84.0245 75.3201 83.588C82.0196 83.1362 89.2812 81.5957 95.6738 77.8794C95.7607 77.8288 95.8545 77.8085 95.9475 77.7863C96.365 77.6869 96.8135 77.8512 97.041 78.2417C97.3193 78.7192 97.1572 79.331 96.6797 79.6089C89.9805 83.5024 82.4038 85.1165 75.4425 85.5862C75.9221 93.0596 76.5825 99.8925 76.8823 102.836C76.9709 103.705 77.7014 104.364 78.5743 104.364H106.296C107.19 104.364 107.932 103.677 107.993 102.785C108.54 94.749 110.009 58.5443 92.7593 52.7943Z" fill="#0893EA"/>
<path d="M39.3995 53.4067C40.0718 53.5447 40.7415 53.611 41.4025 53.611C46.0601 53.611 50.2429 50.312 51.2243 45.5302C52.3447 40.0699 48.8674 34.7435 43.4573 33.6332C42.785 33.4953 42.1152 33.429 41.4543 33.429C36.7966 33.4293 32.6138 36.728 31.6325 41.5098C30.512 46.97 33.9894 52.2965 39.3995 53.4067ZM38.6572 42.9902C40.7799 42.4556 42.6071 41.5856 44.0809 40.6759C45.5778 41.2979 47.3767 41.6882 49.1012 41.1928C49.466 42.4305 49.5429 43.7746 49.2651 45.1282C48.4941 48.8846 45.1874 51.611 41.4025 51.611C40.8687 51.611 40.33 51.556 39.8015 51.4476C37.765 51.0297 36.0114 49.8507 34.8374 48.1283C36.1545 47.7203 38.0673 46.5062 38.6572 42.9902Z" fill="#0893EA"/>
<path d="M25.3044 59.1034C23.2833 61.56 21.8611 64.76 21.8611 68.9015C21.8611 80.6758 23.1132 97.0837 23.5568 102.528C23.6414 103.566 24.5082 104.364 25.5501 104.364H46.8802C47.8857 104.364 48.7355 103.622 48.8633 102.624C49.6191 96.725 51.6293 77.0805 47.0211 63.3331C43.8733 53.9429 31.5967 51.4556 25.3044 59.1034ZM42.1651 99.8243C41.1309 101.183 39.5587 101.962 37.8507 101.962C35.6007 101.962 33.5596 100.546 32.7725 98.4376L30.2374 91.6534C28.5782 87.2134 27.5001 82.5723 27.0333 77.8589L26.585 73.3458C26.5167 72.6568 26.1671 72.0147 25.6251 71.585L24.3536 70.5743C23.921 70.231 23.8487 69.6021 24.1925 69.1695C24.5352 68.7374 25.1651 68.6641 25.5977 69.0089L26.3212 69.5837L26.8692 70.0191C27.8311 70.7833 28.4532 71.9239 28.5753 73.148L29.0235 77.6617C29.4737 82.2032 30.5118 86.6749 32.1104 90.9532L34.6456 97.7379C35.1426 99.0684 36.4307 99.9625 37.8507 99.9625C38.9288 99.9625 39.921 99.4703 40.5743 98.6129C41.2266 97.7554 41.4366 96.668 41.1495 95.6295C38.9678 87.7325 38.5841 79.2984 40.0411 71.2379L40.7434 67.3533L40.8048 67.0137C40.9034 66.4708 41.4268 66.105 41.9669 66.2076C42.5108 66.3057 42.8712 66.8257 42.7735 67.3692L42.0098 71.5933C40.6055 79.3604 40.9747 87.4874 43.0772 95.0967C43.5323 96.7423 43.1993 98.4654 42.1651 99.8243Z" fill="#0893EA"/>
</svg>
