<svg width="50" height="50" viewBox="0 0 50 50" fill="none" xmlns="http://www.w3.org/2000/svg">
<path d="M25 39.6644C31.5648 39.6644 36.8867 34.3426 36.8867 27.7778C36.8867 21.213 31.5648 15.8911 25 15.8911C18.4352 15.8911 13.1133 21.213 13.1133 27.7778C13.1133 34.3426 18.4352 39.6644 25 39.6644Z" fill="#F8DA7F"/>
<path d="M25 43.6228C21.2894 43.6228 17.6817 42.3133 14.8411 39.9344C14.6061 39.7378 14.575 39.3872 14.7717 39.1522C14.9683 38.9161 15.3183 38.885 15.5544 39.0828C18.1956 41.2933 21.55 42.5117 25 42.5117C33.1178 42.5117 39.7222 35.9072 39.7222 27.7894C39.7222 19.6717 33.1178 13.0672 25 13.0672C17.0678 13.0672 10.5806 19.3722 10.2883 27.2339H12.7011C13.0078 27.2339 13.2567 27.4822 13.2567 27.7894C13.2567 28.0967 13.0078 28.345 12.7011 28.345H9.72222C9.41556 28.345 9.16667 28.0967 9.16667 27.7894C9.16667 19.0589 16.2694 11.9561 25 11.9561C33.7306 11.9561 40.8333 19.0589 40.8333 27.7894C40.8333 36.52 33.7306 43.6228 25 43.6228Z" fill="black"/>
<path d="M25 50C12.7533 50 2.78944 40.0361 2.78944 27.7894C2.78944 17.0872 10.3261 7.99278 20.7783 5.98556V4.42H18.3633C18.0567 4.42 17.8078 4.17111 17.8078 3.86444C17.8078 1.73333 19.5411 0 21.6722 0H28.3278C30.4589 0 32.1922 1.73333 32.1922 3.86444C32.1922 4.17111 31.9439 4.42 31.6367 4.42H29.2211V5.98556C39.6744 7.99222 47.2106 17.0856 47.2106 27.7894C47.2106 40.0361 37.2472 50 25 50ZM21.8894 6.38444C21.89 6.39 21.8906 6.39611 21.8911 6.40111C21.9156 6.68889 21.7189 6.94722 21.4344 6.99556C11.2744 8.72556 3.90056 17.4706 3.90056 27.7894C3.90056 39.4239 13.3656 48.8889 25 48.8889C36.6344 48.8889 46.0994 39.4239 46.0994 27.7894C46.0994 17.4683 38.7233 8.72333 28.56 6.995C28.2756 6.94667 28.0756 6.68833 28.1 6.40056C28.1017 6.37667 28.1056 6.35278 28.1106 6.33V3.86444C28.1106 3.55778 28.3589 3.30889 28.6661 3.30889H31.025C30.7672 2.05611 29.6561 1.11111 28.3278 1.11111H21.6722C20.3444 1.11111 19.2328 2.05611 18.9756 3.30889H21.3344C21.6411 3.30889 21.89 3.55778 21.89 3.86444V6.38444H21.8894Z" fill="black"/>
<path d="M23.7578 34.415H16.42C16.2011 34.415 16.0028 34.2867 15.9133 34.0867C15.8233 33.8872 15.8594 33.6539 16.005 33.4906L22.4467 26.2467C23.5428 25.0144 23.4317 23.1206 22.1994 22.0244C20.9667 20.9289 19.0733 21.0394 17.9767 22.2717C17.7733 22.5006 17.4217 22.5217 17.1922 22.3178C16.9628 22.1139 16.9422 21.7628 17.1461 21.5333C18.6489 19.8433 21.2467 19.6911 22.9372 21.1944C24.6272 22.6978 24.7794 25.2956 23.2761 26.9856L17.6572 33.3039H23.7578C24.0644 33.3039 24.3133 33.5522 24.3133 33.8594C24.3133 34.1667 24.0644 34.415 23.7578 34.415Z" fill="black"/>
<path d="M31.5906 34.415C31.2833 34.415 31.035 34.1667 31.035 33.8594V31.65H25.175C24.9733 31.65 24.7878 31.5411 24.6894 31.365C24.5917 31.1889 24.5961 30.9739 24.7022 30.8022L31.1178 20.4206C31.2478 20.2094 31.5022 20.1094 31.7422 20.1783C31.9811 20.2461 32.1461 20.4644 32.1461 20.7128V30.5389H34.0728C34.38 30.5389 34.6283 30.7872 34.6283 31.0944C34.6283 31.4017 34.38 31.65 34.0728 31.65H32.1461V33.86C32.1461 34.1667 31.8978 34.415 31.5906 34.415ZM26.1711 30.5389H31.035V22.6689L26.1711 30.5389Z" fill="black"/>
<path d="M37.8139 28.345H37.2989C36.9917 28.345 36.7433 28.0967 36.7433 27.7894C36.7433 27.4822 36.9917 27.2339 37.2989 27.2339H37.8139C38.1211 27.2339 38.3694 27.4822 38.3694 27.7894C38.3694 28.0967 38.1211 28.345 37.8139 28.345Z" fill="black"/>
<path d="M25 16.0456C24.6933 16.0456 24.4444 15.7967 24.4444 15.49V14.975C24.4444 14.6683 24.6933 14.4194 25 14.4194C25.3067 14.4194 25.5556 14.6683 25.5556 14.975V15.49C25.5556 15.7972 25.3067 16.0456 25 16.0456Z" fill="black"/>
<path d="M25 41.1589C24.6933 41.1589 24.4444 40.9106 24.4444 40.6033V40.0883C24.4444 39.7811 24.6933 39.5328 25 39.5328C25.3067 39.5328 25.5556 39.7811 25.5556 40.0883V40.6033C25.5556 40.9106 25.3067 41.1589 25 41.1589Z" fill="black"/>
</svg>
